<svg id="Capa_1" enable-background="new 0 0 512 512" height="512" viewBox="0 0 512 512" width="512" xmlns="http://www.w3.org/2000/svg"><path d="m111.71 79.645h-48.097c-4.427 0-8.016 3.589-8.016 8.016v40.081h64.129v-40.081c0-4.427-3.589-8.016-8.016-8.016z" fill="#dad8db"/><path d="m79.645 79.645h-16.032c-4.427 0-8.016 3.589-8.016 8.016v40.081h24.048z" fill="#c8c5c9"/><path d="m183.855 79.645h-24.048c-4.427 0-8.016 3.589-8.016 8.016v40.081h40.081v-40.081c-.001-4.427-3.59-8.016-8.017-8.016z" fill="#dad8db"/><path d="m464.419 432.355h-416.838c-22.136 0-40.081-17.945-40.081-40.081v-240.484c0-22.136 17.945-40.081 40.081-40.081h416.839c22.136 0 40.081 17.945 40.081 40.081v240.484c-.001 22.136-17.946 40.081-40.082 40.081z" fill="#f9eac7"/><path d="m47.581 408.306c-8.84 0-16.032-7.192-16.032-16.032v-277.181c-14.144 6.191-24.049 20.271-24.049 36.697v240.484c0 22.136 17.944 40.081 40.081 40.081h416.839c16.427 0 30.507-9.905 36.697-24.048h-453.536z" fill="#f4dbb3"/><path d="m7.5 175.839h497v192.387h-497z" fill="#d19a6e"/><path d="m456.403 175.839h-80.161v-24.049c0-4.427 3.589-8.016 8.016-8.016h64.129c4.427 0 8.016 3.589 8.016 8.016z" fill="#f4dbb3"/><path d="m456.403 175.839h-48.097v-32.065h40.081c4.427 0 8.016 3.589 8.016 8.016z" fill="#fff"/><path d="m7.5 175.839h24.048v192.387h-24.048z" fill="#c38c66"/><circle cx="256" cy="296.081" fill="#f4dbb3" r="136.274"/><circle cx="256" cy="296.081" fill="#6f6571" r="104.21"/><circle cx="256" cy="296.081" fill="#5d5360" r="80.161"/><circle cx="256" cy="296.081" fill="#4b3f4e" r="56.113"/><circle cx="256" cy="296.081" fill="#d6bdef" r="24.048"/><path d="m464.419 104.209h-265.048v-16.548c0-8.556-6.96-15.516-15.516-15.516h-24.048c-8.556 0-15.516 6.96-15.516 15.516v16.548h-17.065v-16.548c0-8.556-6.96-15.516-15.516-15.516h-48.097c-8.556 0-15.516 6.96-15.516 15.516v16.548h-.516c-26.236 0-47.581 21.345-47.581 47.582v240.484c0 26.236 21.345 47.581 47.581 47.581h416.839c26.236 0 47.581-21.345 47.581-47.581v-240.484c-.001-26.237-21.346-47.582-47.582-47.582zm-337.193 191.872c0-71.006 57.768-128.774 128.774-128.774s128.774 57.768 128.774 128.774-57.768 128.774-128.774 128.774-128.774-57.768-128.774-128.774zm272.548 0c0-45.645-21.384-86.386-54.656-112.742h151.882v177.387h-112.604c9.831-19.446 15.378-41.409 15.378-64.645zm48.613-144.807c.285 0 .516.231.516.516v16.548h-33.097v-17.064zm-47.58 17.065h-17.065v-16.548c0-.285.232-.516.517-.516h16.548zm-241.516-80.678c0-.285.231-.516.516-.516h24.048c.285 0 .516.231.516.516v16.548h-25.081v-16.548zm-96.194 0c0-.285.231-.516.516-.516h48.097c.285 0 .516.231.516.516v16.548h-49.129zm-15.516 31.548h416.839c17.965 0 32.581 14.616 32.581 32.581v16.548h-33.097v-16.548c0-8.556-6.96-15.516-15.516-15.516h-64.129c-8.556 0-15.517 6.96-15.517 15.516v16.548h-46.814c-19.76-10.239-42.179-16.032-65.927-16.032-79.277 0-143.774 64.497-143.774 143.774 0 23.237 5.548 45.2 15.378 64.645h-112.605v-177.386h120.758c4.142 0 7.5-3.358 7.5-7.5s-3.358-7.5-7.5-7.5h-120.758v-16.548c0-17.966 14.616-32.582 32.581-32.582zm0 305.646c-17.965 0-32.581-14.616-32.581-32.581v-16.549h121.362c13.929 20.855 33.161 37.876 55.752 49.129h-144.533zm416.838 0h-144.534c22.592-11.253 41.823-28.275 55.752-49.129h121.363v16.549c0 17.964-14.616 32.58-32.581 32.58z"/><path d="m256 407.791c61.597 0 111.709-50.113 111.709-111.71s-50.113-111.709-111.709-111.709-111.709 50.113-111.709 111.709c0 61.597 50.112 111.71 111.709 111.71zm0-208.42c53.326 0 96.709 43.384 96.709 96.709 0 53.326-43.384 96.71-96.709 96.71s-96.709-43.384-96.709-96.71c0-53.325 43.383-96.709 96.709-96.709z"/><path d="m256 327.629c17.396 0 31.548-14.152 31.548-31.548s-14.152-31.549-31.548-31.549-31.548 14.152-31.548 31.548 14.152 31.549 31.548 31.549zm0-48.097c9.125 0 16.548 7.423 16.548 16.548s-7.423 16.548-16.548 16.548-16.548-7.423-16.548-16.548 7.423-16.548 16.548-16.548z"/><path d="m206.657 330.259c1.205 0 2.428-.292 3.563-.905 3.643-1.971 4.999-6.522 3.028-10.166-10.15-18.761-6.705-42.399 8.378-57.482s38.721-18.53 57.482-8.378c3.643 1.972 8.195.615 10.166-3.028s.615-8.194-3.028-10.166c-24.553-13.283-55.487-8.774-75.227 10.965s-24.249 50.673-10.965 75.227c1.357 2.509 3.938 3.933 6.603 3.933z"/><path d="m232.892 338.833c-3.645-1.971-8.194-.615-10.166 3.028-1.971 3.643-.615 8.194 3.028 10.166 9.426 5.1 19.792 7.577 30.104 7.577 16.549 0 32.961-6.381 45.122-18.542 19.74-19.74 24.249-50.674 10.965-75.226-1.971-3.643-6.521-4.999-10.165-3.027-3.643 1.971-4.999 6.522-3.027 10.165 10.15 18.761 6.705 42.398-8.379 57.482-15.082 15.082-38.721 18.528-57.482 8.377z"/></svg>