<svg id="Capa_1" enable-background="new 0 0 512 512" height="512" viewBox="0 0 512 512" width="512" xmlns="http://www.w3.org/2000/svg"><path d="m480.452 340.169c13.282 0 24.048 10.767 24.048 24.048v80.161c0 13.282-10.767 24.048-24.048 24.048h-32.065v-128.257z" fill="#5d5360"/><path d="m456.403 436.363h48.097v-72.145c0-13.282-10.767-24.048-24.048-24.048h-24.048v96.193z" fill="#6f6571"/><path d="m31.548 340.169c-13.282 0-24.048 10.767-24.048 24.048v80.161c0 13.282 10.767 24.048 24.048 24.048h32.065v-128.257z" fill="#4b3f4e"/><path d="m55.597 436.363h-48.097v-72.145c0-13.282 10.767-24.048 24.048-24.048h24.048v96.193z" fill="#5d5360"/><path d="m256 27.54c-123.765 0-224.452 100.687-224.452 224.452l16.032 8.016 16.032-8.016c.001-106.252 86.136-192.387 192.388-192.387s192.387 86.135 192.387 192.387l16.032 8.016 16.032-8.016c.001-123.765-100.686-224.452-224.451-224.452z" fill="#966a5b"/><path d="m448.387 484.46h-32.065c-8.854 0-16.032-7.178-16.032-16.032v-128.259c0-8.854 7.178-16.032 16.032-16.032h32.065c8.854 0 16.032 7.178 16.032 16.032v128.258c0 8.855-7.178 16.033-16.032 16.033z" fill="#6f6571"/><path d="m440.371 452.395c-8.854 0-16.032-7.178-16.032-16.032v-112.226h-8.016c-8.854 0-16.032 7.178-16.032 16.032v128.258c0 8.854 7.178 16.032 16.032 16.032h32.065c8.854 0 16.032-7.178 16.032-16.032v-16.032z" fill="#5d5360"/><path d="m95.677 484.46h-32.064c-8.854 0-16.032-7.178-16.032-16.032v-128.259c0-8.854 7.178-16.032 16.032-16.032h32.065c8.854 0 16.032 7.178 16.032 16.032v128.258c0 8.855-7.178 16.033-16.033 16.033z" fill="#6f6571"/><path d="m87.661 452.395c-8.854 0-16.032-7.178-16.032-16.032v-112.226h-8.016c-8.854 0-16.032 7.178-16.032 16.032v128.258c0 8.854 7.178 16.032 16.032 16.032h32.065c8.854 0 16.032-7.178 16.032-16.032v-16.032z" fill="#5d5360"/><circle cx="47.581" cy="404.299" fill="#f9eac7" r="16.032"/><path d="m63.613 284.057h-32.065c-4.427 0-8.016-3.589-8.016-8.016v-16.032c0-4.427 3.589-8.016 8.016-8.016h32.065c4.427 0 8.016 3.589 8.016 8.016v16.032c0 4.427-3.589 8.016-8.016 8.016z" fill="#f4dbb3"/><circle cx="464.419" cy="404.299" fill="#f9eac7" r="16.032"/><path d="m31.548 284.057h16.032v-32.065h-16.032c-4.427 0-8.016 3.589-8.016 8.016v16.032c0 4.428 3.589 8.017 8.016 8.017z" fill="#eac89f"/><path d="m480.452 284.057h-32.065c-4.427 0-8.016-3.589-8.016-8.016v-16.032c0-4.427 3.589-8.016 8.016-8.016h32.065c4.427 0 8.016 3.589 8.016 8.016v16.032c0 4.427-3.589 8.016-8.016 8.016z" fill="#f4dbb3"/><path d="m448.387 284.057h16.032v-32.065h-16.032c-4.427 0-8.016 3.589-8.016 8.016v16.032c0 4.428 3.589 8.017 8.016 8.017z" fill="#eac89f"/><path d="m480.452 332.67h-8.532v-41.113h8.532c8.556 0 15.516-6.961 15.516-15.517v-16.032c0-5.865-3.273-10.979-8.087-13.617-2.986-125.321-105.855-226.351-231.881-226.351s-228.895 101.03-231.88 226.351c-4.814 2.637-8.087 7.751-8.087 13.617v16.032c0 8.556 6.96 15.517 15.516 15.517h8.532v41.113h-8.532c-17.397 0-31.549 14.152-31.549 31.548v80.161c0 17.396 14.152 31.549 31.548 31.549h9.765c3.139 9.308 11.946 16.032 22.3 16.032h32.064c12.976 0 23.532-10.556 23.532-23.532v-80.161c0-4.142-3.358-7.5-7.5-7.5s-7.5 3.358-7.5 7.5v80.161c0 4.705-3.828 8.532-8.532 8.532h-32.064c-4.705 0-8.532-3.828-8.532-8.532v-41.83c9.308-3.139 16.032-11.946 16.032-22.299s-6.724-19.16-16.032-22.299v-41.83c0-4.705 3.828-8.532 8.532-8.532h32.064c4.705 0 8.532 3.828 8.532 8.532v16.033c0 4.143 3.358 7.5 7.5 7.5s7.5-3.357 7.5-7.5v-16.033c0-12.976-10.557-23.532-23.532-23.532h-32.064c-3.009 0-5.885.574-8.532 1.608v-26.688h8.532c8.556 0 15.516-6.961 15.516-15.517v-16.032c0-5.799-3.203-10.857-7.927-13.52 2.921-99.411 84.692-179.384 184.798-179.384 45.524 0 89.299 16.763 123.262 47.2 3.084 2.765 7.827 2.505 10.591-.58s2.505-7.827-.58-10.591c-36.718-32.906-84.049-51.029-133.273-51.029-107.706 0-195.773 85.632-199.732 192.388h-17.076c3.968-116.168 99.692-209.453 216.808-209.453s212.84 93.285 216.808 209.452h-17.072c-1.623-42.634-17.025-84.074-43.799-117.429-2.592-3.23-7.314-3.748-10.543-1.154-3.23 2.593-3.747 7.313-1.154 10.544 25.062 31.223 39.348 70.105 40.554 110.038-4.722 2.663-7.923 7.72-7.923 13.517v16.032c0 8.556 6.96 15.517 15.516 15.517h8.532v26.688c-2.647-1.034-5.523-1.608-8.532-1.608h-32.064c-12.976 0-23.532 10.556-23.532 23.532v128.258c0 12.976 10.557 23.532 23.532 23.532h32.064c10.354 0 19.16-6.724 22.3-16.032h9.765c17.396 0 31.548-14.153 31.548-31.549v-80.161c0-17.395-14.152-31.547-31.548-31.547zm-465.452 111.709v-80.161c0-9.125 7.423-16.548 16.548-16.548h8.532v34.33c-9.308 3.139-16.032 11.946-16.032 22.299s6.724 19.16 16.032 22.299v34.33h-8.532c-9.125 0-16.548-7.424-16.548-16.549zm32.593-31.549c-.004 0-.008-.001-.012-.001s-.008.001-.012.001c-4.699-.007-8.52-3.831-8.52-8.532 0-4.705 3.828-8.532 8.532-8.532s8.532 3.828 8.532 8.532c0 4.701-3.821 8.525-8.52 8.532zm16.536-136.79c0 .285-.231.517-.516.517h-32.065c-.285 0-.516-.231-.516-.517v-16.032c0-.284.231-.516.516-.516h32.064c.285 0 .516.231.516.516v16.032zm383.742 0v-16.032c0-.284.231-.516.516-.516h32.064c.285 0 .516.231.516.516v16.032c0 .285-.231.517-.516.517h-32.064c-.284 0-.516-.232-.516-.517zm16.561 136.79c-.004 0-.008-.001-.012-.001s-.008.001-.012.001c-4.699-.007-8.52-3.831-8.52-8.532 0-4.705 3.828-8.532 8.532-8.532s8.532 3.828 8.532 8.532c0 4.701-3.822 8.525-8.52 8.532zm-16.045 64.13h-32.064c-4.705 0-8.532-3.828-8.532-8.532v-128.258c0-4.705 3.828-8.532 8.532-8.532h32.064c4.705 0 8.532 3.828 8.532 8.532v41.83c-9.308 3.139-16.032 11.946-16.032 22.299s6.724 19.16 16.032 22.299v41.83c0 4.704-3.827 8.532-8.532 8.532zm48.613-32.581c0 9.125-7.423 16.549-16.548 16.549h-8.532v-34.33c9.308-3.139 16.032-11.946 16.032-22.299s-6.724-19.16-16.032-22.299v-34.33h8.532c9.125 0 16.548 7.423 16.548 16.548z"/></svg>