<svg id="Capa_1" enable-background="new 0 0 512 512" height="512" viewBox="0 0 512 512" width="512" xmlns="http://www.w3.org/2000/svg"><path d="m256 7.5v304.613h-109.671c-28.136-56.702-50.652-111.787-50.652-144.29 0-88.544 71.779-160.323 160.323-160.323z" fill="#95d6a4"/><path d="m256 7.5v304.613h-82.253c-21.103-56.702-37.989-111.787-37.989-144.29 0-88.544 53.834-160.323 120.242-160.323z" fill="#b3e59f"/><path d="m256 7.5v304.613h109.671c28.136-56.702 50.652-111.787 50.652-144.29 0-88.544-71.779-160.323-160.323-160.323z" fill="#b3e59f"/><path d="m396.282 199.887c-11.068 0-20.04-14.356-20.04-32.065h-32.065l-21.644 144.29h43.137c28.136-56.702 50.652-111.787 50.652-144.29.001 17.709-8.972 32.065-20.04 32.065z" fill="#ffd064"/><path d="m256 7.5v304.613h82.253c21.103-56.702 37.989-111.787 37.989-144.29 0-88.544-53.834-160.323-120.242-160.323z" fill="#ccf49f"/><path d="m338.253 312.113c21.103-56.702 37.989-111.787 37.989-144.29 0 17.708-12.561 32.065-28.056 32.065s-28.056-14.356-28.056-32.065l-24.048 8.016-14.345 136.274z" fill="#ffe07d"/><path d="m299.869 312.113c11.254-56.702 20.26-111.787 20.26-144.29 0-88.544-28.711-160.323-64.129-160.323s-64.129 71.779-64.129 160.323c0 32.503 9.006 87.588 20.26 144.29z" fill="#95d6a4"/><path d="m256 7.5v304.613h43.869c11.255-56.702 20.26-111.787 20.26-144.29 0-88.544-28.712-160.323-64.129-160.323z" fill="#b3e59f"/><path d="m163.815 199.887c-15.495 0-28.056-14.356-28.056-32.065 0 17.708-8.972 32.065-20.04 32.065s-20.04-14.356-20.04-32.065c0 32.503 22.515 87.588 50.652 144.29h43.137l-17.087-113.91c-2.717 1.002-5.559 1.685-8.566 1.685z" fill="#ffc250"/><path d="m191.871 167.823c0 17.708-12.561 32.065-28.056 32.065s-28.056-14.356-28.056-32.065c0 32.503 16.886 87.588 37.989 144.29h56.518l-11.872-112.785c-15.057-2.635-26.523-15.696-26.523-31.505z" fill="#ffd064"/><path d="m191.871 167.823c0 17.708 14.356 32.065 32.065 32.065s32.064-14.357 32.064-32.065v144.29h-43.869c-11.254-56.703-20.26-111.788-20.26-144.29z" fill="#ffc250"/><path d="m215.919 440.371v40.081c0 13.282 10.767 24.048 24.048 24.048h32.065c13.282 0 24.048-10.767 24.048-24.048v-40.081z" fill="#f6d190"/><path d="m320.129 167.823c0 17.708-14.356 32.065-32.065 32.065s-32.064-14.357-32.064-32.065v144.29h43.869c11.254-56.703 20.26-111.788 20.26-144.29z" fill="#ffd064"/><path d="m239.968 456.403v-16.032h-24.048v40.081c0 13.282 10.767 24.048 24.048 24.048h32.065c13.282 0 24.048-10.767 24.048-24.048h-32.065c-13.281 0-24.048-10.767-24.048-24.049z" fill="#ecbd83"/><path d="m423.823 167.823c0-92.538-75.285-167.823-167.823-167.823s-167.823 75.285-167.823 167.823c0 57.579 64.032 176.662 120.242 274.548v38.081c0 17.396 14.152 31.549 31.548 31.549h32.064c17.396 0 31.548-14.152 31.548-31.549v-38.081c56.212-97.886 120.244-216.969 120.244-274.548zm-177.882 265.048c-7.972-34.791-16.827-74.505-24.658-113.258h69.442c-8.142 40.332-17.149 80.468-24.667 113.258zm-25.681 0c-14.945-26.013-39.267-68.584-61.881-113.258h47.617c7.759 38.652 16.563 78.299 24.558 113.258zm-110.06-226.25c1.778.501 3.622.767 5.518.767 6.062 0 11.598-2.696 16.098-7.293 5.005 26.465 15.331 61.063 31.166 104.518h-12.087c-16.985-34.563-32.223-69.41-40.695-97.992zm286.082.766c1.895 0 3.739-.262 5.517-.762-8.472 28.582-23.71 63.426-40.694 97.988h-12.087c15.835-43.456 26.162-78.054 31.166-104.519 4.5 4.597 10.036 7.293 16.098 7.293zm-87.289 97.226c.463-2.377.923-4.753 1.377-7.123.779-4.068-1.887-7.998-5.955-8.777-4.071-.782-7.998 1.887-8.777 5.955-.634 3.308-1.277 6.624-1.927 9.945h-30.211v-105.805c6.752 5.366 15.289 8.579 24.564 8.579 8.36 0 16.119-2.608 22.512-7.051-1.824 17.23-4.858 38.079-9.086 62.395-.709 4.081 2.023 7.964 6.104 8.674.435.076.867.112 1.294.112 3.578 0 6.746-2.57 7.38-6.216 4.551-26.169 7.745-48.485 9.564-66.762 6.112 5.52 13.885 8.848 22.354 8.848 5.787 0 11.252-1.553 16.085-4.295-5.457 25.952-15.899 59.909-31.227 101.52h-24.051zm-90.698 0c-7.551-38.492-13.818-75.236-16.888-104.313 6.399 4.455 14.157 7.088 22.529 7.088 9.277 0 17.813-3.214 24.564-8.583v105.808zm-39.338 0c-15.327-41.609-25.769-75.564-31.226-101.516 4.832 2.741 10.297 4.29 16.084 4.29 8.467 0 16.245-3.318 22.356-8.838 2.94 29.461 9.224 66.849 16.859 106.064zm115.425-247.37c11.767 29.417 18.247 68.688 18.247 110.58 0 13.545-11.02 24.564-24.564 24.564s-24.564-11.02-24.564-24.564v-151.298c11.159 4.493 22.106 18.78 30.881 40.718zm53.804 135.144c-11.335 0-20.557-11.02-20.557-24.564 0-43.755-6.861-85.005-19.319-116.151-4.397-10.993-9.369-20.345-14.786-27.958 43.773 21.005 75.218 77.668 75.218 144.109 0 13.545-9.222 24.564-20.556 24.564zm-129.819-168.621c-6.574 9.295-12.483 21.202-17.537 35.518-1.379 3.906.67 8.19 4.576 9.569 3.905 1.377 8.189-.67 9.569-4.576 9.058-25.658 21.188-42.706 33.526-47.725v151.271c0 13.545-11.02 24.564-24.564 24.564s-24.564-11.02-24.564-24.564c0-24.879 2.252-48.652 6.695-70.658.82-4.061-1.807-8.016-5.867-8.836-4.064-.819-8.017 1.807-8.836 5.867-4.64 22.981-6.992 47.752-6.992 73.626 0 13.545-9.222 24.564-20.557 24.564-11.334 0-20.556-11.02-20.556-24.564-.002-66.384 31.39-123.009 75.107-144.056zm87.659 295.847h32.195c.015 0 .03.002.044.002.009 0 .017-.002.026-.002h15.33c-22.615 44.675-46.937 87.245-61.881 113.258h-10.293c7.567-33.064 16.523-73.131 24.579-113.258zm102.797-151.79c0 .542-.021 1.107-.035 1.663-.496 13.215-6.822 22.902-12.506 22.902-5.92 0-12.541-10.505-12.541-24.564 0-44.436-13.04-86.294-36.718-117.865-2.958-3.944-6.04-7.668-9.231-11.172 42.664 27.138 71.031 74.834 71.031 129.036zm-234.615-129.037c-3.192 3.504-6.273 7.228-9.231 11.172-23.678 31.571-36.718 73.429-36.718 117.865 0 14.059-6.621 24.564-12.541 24.564-5.684 0-12.01-9.686-12.506-22.902-.013-.556-.035-1.121-.035-1.663 0-54.201 28.367-101.897 71.031-129.036zm97.824 458.214h-32.064c-9.125 0-16.548-7.424-16.548-16.549v-32.58h65.161v32.58c0 9.125-7.424 16.549-16.549 16.549z"/></svg>